/* XPM */
static char * iggy_24x24_xpm[] = {
"24 24 183 2",
"  	c None",
". 	c #717120",
"+ 	c #8A8A08",
"@ 	c #959500",
"# 	c #88880C",
"$ 	c #6A6A23",
"% 	c #555615",
"& 	c #C9C902",
"* 	c #FDFD00",
"= 	c #FFFF00",
"- 	c #FCFC00",
"; 	c #C0C001",
"> 	c #5A5A25",
", 	c #565610",
"' 	c #E6E600",
") 	c #E2E201",
"! 	c #5A5A1F",
"~ 	c #CACA03",
"{ 	c #C8C803",
"] 	c #747414",
"^ 	c #F9F900",
"/ 	c #C9C90D",
"( 	c #C9C90F",
"_ 	c #FAFA00",
": 	c #D5D50A",
"< 	c #A8A859",
"[ 	c #A6A63D",
"} 	c #EEEE01",
"| 	c #767616",
"1 	c #ACAC0A",
"2 	c #B2B22C",
"3 	c #DADAD8",
"4 	c #DDDDDC",
"5 	c #B7B730",
"6 	c #B0B080",
"7 	c #FEFEFE",
"8 	c #F6F6F6",
"9 	c #B0B032",
"0 	c #AEAE0A",
"a 	c #C9C900",
"b 	c #B2B275",
"c 	c #D1D1D1",
"d 	c #B9B97C",
"e 	c #9F9F81",
"f 	c #8C8C8C",
"g 	c #FCFCFC",
"h 	c #B1B13F",
"i 	c #D2D200",
"j 	c #CDCD00",
"k 	c #B2B22A",
"l 	c #DBDBDB",
"m 	c #575756",
"n 	c #B4B429",
"o 	c #BDBD11",
"p 	c #7C7C5E",
"q 	c #A7A76D",
"r 	c #E2E205",
"s 	c #D7D700",
"t 	c #B6B605",
"u 	c #C6C601",
"v 	c #C5C500",
"w 	c #BBBB05",
"x 	c #858510",
"y 	c #868611",
"z 	c #5C5C34",
"A 	c #E4E400",
"B 	c #E3E300",
"C 	c #48481D",
"D 	c #76770C",
"E 	c #F8F800",
"F 	c #F6F600",
"G 	c #747416",
"H 	c #514745",
"I 	c #746506",
"J 	c #EDED00",
"K 	c #735809",
"L 	c #592732",
"M 	c #6F2F3F",
"N 	c #960D2F",
"O 	c #CD0134",
"P 	c #DA0037",
"Q 	c #7F5F08",
"R 	c #E7E700",
"S 	c #C2BF01",
"T 	c #917A06",
"U 	c #901D1D",
"V 	c #EA003B",
"W 	c #FE0040",
"X 	c #CF1242",
"Y 	c #8B092A",
"Z 	c #F6003E",
"` 	c #FF0040",
" .	c #E20039",
"..	c #A49A03",
"+.	c #FEFE00",
"@.	c #7F4E0D",
"#.	c #B0002C",
"$.	c #C50032",
"%.	c #EF003C",
"&.	c #83233B",
"*.	c #6C2839",
"=.	c #FB003F",
"-.	c #FC003F",
";.	c #B2002D",
">.	c #CA0033",
",.	c #A40F25",
"'.	c #E2E200",
").	c #EEEE00",
"!.	c #940B23",
"~.	c #F2003D",
"{.	c #F7003E",
"].	c #88243D",
"^.	c #732C3E",
"/.	c #F5003E",
"(.	c #7E0020",
"_.	c #890022",
":.	c #572C0C",
"<.	c #A9A402",
"[.	c #D80036",
"}.	c #920025",
"|.	c #682234",
"1.	c #790B26",
"2.	c #CD0034",
"3.	c #ED003B",
"4.	c #92102C",
"5.	c #C39C76",
"6.	c #A78861",
"7.	c #4E1E17",
"8.	c #F1003C",
"9.	c #890023",
"0.	c #CC0234",
"a.	c #2A1E19",
"b.	c #7E6D31",
"c.	c #776C22",
"d.	c #73041F",
"e.	c #E50039",
"f.	c #DE0038",
"g.	c #BF0030",
"h.	c #6F001C",
"i.	c #A40029",
"j.	c #6F192E",
"k.	c #3A3B2D",
"l.	c #969703",
"m.	c #7C8218",
"n.	c #687560",
"o.	c #6C7360",
"p.	c #372C28",
"q.	c #6D7561",
"r.	c #7B8E74",
"s.	c #819D7E",
"t.	c #7D9C7D",
"u.	c #6F5C46",
"v.	c #96775A",
"w.	c #484445",
"x.	c #809F80",
"y.	c #BAE8BA",
"z.	c #CCFFCC",
"A.	c #6A8369",
"B.	c #AAD5AA",
"C.	c #B1DDB1",
"D.	c #565441",
"E.	c #584F46",
"F.	c #546254",
"G.	c #BDECBD",
"H.	c #8CAE8C",
"I.	c #95BA95",
"J.	c #B9E7B9",
"K.	c #525C52",
"L.	c #5B6B5B",
"M.	c #A3CCA3",
"N.	c #B2DEB2",
"O.	c #9BC29B",
"P.	c #728E72",
"Q.	c #A5CEA5",
"R.	c #90B490",
"S.	c #4E5D4E",
"T.	c #121212",
"U.	c #000000",
"V.	c #030303",
"W.	c #020202",
"X.	c #161616",
"Y.	c #282828",
"Z.	c #3F3F3F",
"                    . + @ # $                   ",
"                % & * = = = - ; >               ",
"              , ' = = = = = = = ) !             ",
"              ~ = = = = = = = = = {             ",
"            ] * ^ / ( _ = : < [ } * |           ",
"            1 = 2 3 4 5 = 6 7 8 9 = 0           ",
"            a = b 7 c d = e f g h = i           ",
"            j = k l m n = o p q r = s           ",
"            t = * u v = = = = = = = w           ",
"            x = = = = = = = = = = = y           ",
"            z A = = = = = = = = = B C           ",
"              D E = = = = = = = F G             ",
"              H I J = = = = = ' K L             ",
"          M N O P Q = R s S T U V W V X         ",
"        Y Z ` `  ...+.@.#.$.%.` ` ` ` ` &.      ",
"      *.=.-.;.>.,.'.).!.` ` ` ` ` ` ~.{.].      ",
"      ^.-./.(._.:.s <.[.` ` ` ` ` ` }.~.|.      ",
"        1.2.3.4.5.6.7.W ` ` ` ` ` 8.9.0.        ",
"              a.b.c.d. .e.f.[.2.g.h.i.j.        ",
"              k.l.m.n.o.p.q.r.s.t.u.v.w.        ",
"                x.y.z.z.A.B.z.z.C.D.E.          ",
"                F.G.z.z.H.I.z.z.J.K.            ",
"                  L.M.N.O.P.Q.R.S.              ",
"                  T.U.U.U.V.W.X.Y.Z.            "};
