/* XPM */
static char * iggy_grey_24x24_xpm[] = {
"24 24 116 2",
"  	g None",
". 	g #686868",
"+ 	g #7C7C7C",
"@ 	g #858585",
"# 	g #7A7A7A",
"$ 	g #626262",
"% 	g #4F4F4F",
"& 	g #B3B3B3",
"* 	g #E1E1E1",
"= 	g #E3E3E3",
"- 	g #E0E0E0",
"; 	g #ABABAB",
"> 	g #545454",
", 	g #4E4E4E",
"' 	g #CDCDCD",
") 	g #C9C9C9",
"! 	g #B4B4B4",
"~ 	g #B2B2B2",
"{ 	g #696969",
"] 	g #DEDEDE",
"^ 	g #B5B5B5",
"/ 	g #BFBFBF",
"( 	g #9F9F9F",
"_ 	g #9A9A9A",
": 	g #D4D4D4",
"< 	g #6B6B6B",
"[ 	g #A3A3A3",
"} 	g #DADADA",
"| 	g #DDDDDD",
"1 	g #A8A8A8",
"2 	g #FEFEFE",
"3 	g #F6F6F6",
"4 	g #A2A2A2",
"5 	g #9C9C9C",
"6 	g #D1D1D1",
"7 	g #8C8C8C",
"8 	g #FCFCFC",
"9 	g #A4A4A4",
"0 	g #BBBBBB",
"a 	g #B6B6B6",
"b 	g #DBDBDB",
"c 	g #575757",
"d 	g #A5A5A5",
"e 	g #AAAAAA",
"f 	g #797979",
"g 	g #A1A1A1",
"h 	g #CACACA",
"i 	g #B0B0B0",
"j 	g #AFAFAF",
"k 	g #A7A7A7",
"l 	g #787878",
"m 	g #585858",
"n 	g #CBCBCB",
"o 	g #434343",
"p 	g #6A6A6A",
"q 	g #4A4A4A",
"r 	g #5F5F5F",
"s 	g #D3D3D3",
"t 	g #373737",
"u 	g #444444",
"v 	g #3A3A3A",
"w 	g #474747",
"x 	g #CECECE",
"y 	g #747474",
"z 	g #3F3F3F",
"A 	g #4D4D4D",
"B 	g #535353",
"C 	g #505050",
"D 	g #343434",
"E 	g #515151",
"F 	g #E2E2E2",
"G 	g #565656",
"H 	g #414141",
"I 	g #424242",
"J 	g #3E3E3E",
"K 	g #525252",
"L 	g #454545",
"M 	g #292929",
"N 	g #2D2D2D",
"O 	g #353535",
"P 	g #949494",
"Q 	g #303030",
"R 	g #393939",
"S 	g #2F2F2F",
"T 	g #8D8D8D",
"U 	g #2C2C2C",
"V 	g #212121",
"W 	g #676767",
"X 	g #282828",
"Y 	g #4B4B4B",
"Z 	g #494949",
"` 	g #242424",
" .	g #363636",
"..	g #868686",
"+.	g #757575",
"@.	g #6F6F6F",
"#.	g #707070",
"$.	g #919191",
"%.	g #8F8F8F",
"&.	g #7D7D7D",
"*.	g #929292",
"=.	g #D5D5D5",
"-.	g #EAEAEA",
";.	g #C3C3C3",
">.	g #5C5C5C",
",.	g #D9D9D9",
"'.	g #A0A0A0",
").	g #646464",
"!.	g #CCCCCC",
"~.	g #838383",
"{.	g #BDBDBD",
"].	g #121212",
"^.	g #000000",
"/.	g #030303",
"(.	g #020202",
"_.	g #161616",
"                    . + @ # $                   ",
"                % & * = = = - ; >               ",
"              , ' = = = = = = = ) >             ",
"              ! = = = = = = = = = ~             ",
"            { * ] ! ^ ] = / ( _ : * <           ",
"            _ = [ } | 1 = ; 2 3 4 = 5           ",
"            & = ; 2 6 ~ = 5 7 8 9 = 0           ",
"            a = [ b c d = e f g h = /           ",
"            [ = * i j = = = = = = = k           ",
"            l = = = = = = = = = = = f           ",
"            m n = = = = = = = = = h o           ",
"              < | = = = = = = = b p             ",
"              q r s = = = = = ' c t             ",
"          u v u w r = x / ; y z A B A C         ",
"        D E > > q 7 F G v H , > > > > > I       ",
"      J K B v I J ) : t > > > > > > % E L       ",
"      o B C M N O / P w > > > > > > Q % R       ",
"        S o , v 9 T U B > > > > > % N u         ",
"              V < W X q Y Z w o z `  .O         ",
"              R ..+.@.@.S #.@ $.%.r &.L         ",
"                *.=.-.-.f ;.-.-.n B E           ",
"                >.,.-.-.'.; -.-.: m             ",
"                  ).0 !.~ ~.{.d c               ",
"                  ].^.^.^./.(._.X z             "};
