<?xml version="1.0" encoding="UTF-8" standalone="no"?>
<svg xmlns="http://www.w3.org/2000/svg" xmlns:xlink="http://www.w3.org/1999/xlink" viewBox="0 0 960 587" preserveAspectRatio="xMidYMid meet">
  <style>
.a {
fill: #fff;
stroke-linejoin: round;
stroke-width: 1.5;
stroke: #000;
}

.b, .c, .d, .e, .f, .g {
font-family: "Droid Sans", "Noto Sans", Ubuntu, "Segoe UI", "Lucida Grande", "Bitstream Vera Sans", Verdana, sans-serif;
font-feature-settings: normal;
font-variant-caps: normal;
font-variant-ligatures: normal;
font-variant-numeric: normal;
text-align: center;
text-anchor: middle;
}

.b {
font-size: 20px;
}

.c {
font-size: 20px;
}

.d {
font-size: 30px;
font-weight: bold;
}

.e {
font-size: 30px;
}

.f {
font-size: 20px;
font-weight: bold;
}

.g {
font-size: 20px;
}

text.tooltip:hover {
fill: #090;
}

path.tooltip, rect.tooltip {
fill: #F9FFEF;
}

rect.tooltip:hover {
fill: url(#hover);
}

path.tooltip:hover {
fill: url(#arrow);
}

.private {
fill: #ffffee;
}

.private:hover {
fill: url(#hover2);
}

.privatezone {
 stroke: #f00;
  fill: none;
  stroke-dasharray: 5,5; 
  stroke-width: 1;
}

.subs {
  stroke-dasharray: 3,3; 
  stroke-width: 1;
}

a:hover {
cursor: pointer;
fill: #f60;
}
  </style>
  <defs>
    <marker orient="auto" refY="0" refX="0">
      <path d="M1 0-1 1v-2z"/>
    </marker>
    <linearGradient id="hover" x1="0" x2="0" y1="0" y2="1">
      <stop offset="0%" stop-color="#efe" ></stop>
      <stop offset="50%" stop-color="#cfc" ></stop>
      <stop offset="100%" stop-color="#efe" ></stop>
    </linearGradient>
    <linearGradient id="hover2" x1="0" x2="0" y1="0" y2="1">
      <stop offset="0%" stop-color="#ffe" ></stop>
      <stop offset="50%" stop-color="#ff7" ></stop>
      <stop offset="100%" stop-color="#ffe" ></stop>
    </linearGradient>
    <linearGradient id="arrow" x1="0" x2="0" y1="0" y2="1">
      <stop offset="10%" stop-color="#fff" ></stop>
      <stop offset="50%" stop-color="#cfc" ></stop>
      <stop offset="100%" stop-color="#efe" ></stop>
    </linearGradient>
  </defs>
  <g transform="translate(0 0.0000057220459)">
    <path d="m31 76c-9 0-16 7-16 16v231c0 9 0 23 0 31v83c0 9 7 16 16 16h429c7 0 23 0 31 0h440c9 0 16-7 16-16v-83c0-9-7-16-16-16h-439c-7 0-17-7-17-16v-231c0-9-7-16-16-16z" style="fill:#edffff;stroke-linejoin:round;stroke-width:1;stroke:#999"/>
    <rect class="privatezone" width="308" height="137" x="29" y="192" ry="10" style="fill:#efefd7;stroke-linejoin:round"/>
    <rect class="a subs" width="419" height="66" x="506" y="230" ry="10"/>
    <rect class="a tooltip" width="428" height="66" x="264" y="491" ry="10">
    <title>If SusiDNS is configured to publish your Router address book, the entries will appear in your Published address book and saved to a hosts.txt file for sharing.</title>
    </rect>
    <path class="a tooltip" d="m468 418v7h19v-7zm0 16v6h19v-6zm0 15v6h19v-6zm0 15v6h-8l9 12 9 12 9-12 9-12h-8v-6z">
    <title>To configure SusiDNS to push your Router address book to your Published address book, set "should_publish=true" on the configuration page.</title>
    </path>
    <a xlink:href="/susidns/addressbook?book=published" target="_parent">
    <text class="b" x="477" y="531">
      <tspan class="c" x="477" y="531">
         PUBLISHED ADDRESSBOOK
      </tspan>
    </text>
    </a>
    <rect class="a tooltip" width="428" height="66" x="264" y="362" ry="10">
      <title>All hosts derived from subscriptions will appear in this address book, in addition to any you manually add here or to your Master address book.</title>
    </rect>
    <rect class="a private" width="279" height="66" x="44" y="228" ry="10">
      <title>Hosts you manually add here will never be published. You can also add aliases to hosts in other address books here.</title>
    </rect>
    <text class="d tooltip" x="243" y="51">
      <tspan class="e" x="243" y="51">
         LOCAL RECORDS
      </tspan>
      <title>I2P applications (including the HTTP proxy) use the hosts in your local address books to resolve .i2p hostnames.</title>
    </text>
    <a xlink:href="/help#addressbooksubs" target="_top">
    <text class="d" x="716" y="51">
      <tspan class="e" x="716" y="51">
         SUBSCRIPTIONS
      </tspan>
      <title>Additional subscriptions can be found in the FAQ section of the Router help page.</title>
    </text>
    </a>
    <rect class="a subs" width="419" height="66" x="506" y="204" ry="10"/>
    <rect class="a tooltip" width="419" height="64" x="34" y="94" ry="10">
      <title>If you manually add hosts here, they will be included your Published address book (if configured).</title>
    </rect>
    <rect class="a subs" width="419" height="66" x="506" y="179" ry="10"/>
    <rect class="a subs" width="419" height="66" x="506" y="150" ry="10"/>
    <rect class="a subs" width="419" height="66" x="506" y="122" ry="10"/>
    <rect class="a tooltip" width="419" height="62" x="506" y="95" ry="10">
      <title>Hosts sourced from your subscriptions are added to your Router address book, and are automatically synced (by default every 12 hours).</title>
    </rect>
    <text class="b" x="715" y="132">
      <tspan class="c" x="715" y="132">
         http:&#x2F;&#x2F;i2p-projekt.i2p&#x2F;hosts.txt
      </tspan>
      <tspan class="c" x="715" y="145"/>
    </text>
    <a xlink:href="/susidns/addressbook?book=master" target="_parent">
    <text class="b" x="243" y="134">
      <tspan class="c" x="243" y="134">
         MASTER ADDRESSBOOK
      </tspan>
    </text>
    </a>
    <a xlink:href="/susidns/addressbook?book=private" target="_parent">
    <text class="b" x="182" y="268">
      <tspan class="c" x="182" y="268">
         PRIVATE ADDRESSBOOK
      </tspan>
    </text>
    </a>
    <a xlink:href="/susidns/addressbook?book=router" target="_parent">
    <text class="b" x="477" y="403">
      <tspan class="c" x="477" y="403">
         ROUTER ADDRESSBOOK
      </tspan>
    </text>
    </a>
    <text class="f tooltip" x="817" y="389">
      <tspan class="g" x="817" y="389">
         SEARCHABLE BY
      </tspan>
      <tspan class="g" x="817" y="416">
         I2P APPLICATIONS
      </tspan>
      <title>The Master, Router and Private address books collectively serve as the DNS authority for I2P applications.</title>
    </text>
    <text class="f tooltip" x="817" y="518">
      <tspan class="g" x="817" y="518">
         OPTIONAL, FOR
      </tspan>
      <tspan class="g" x="817" y="545">
         EEPSITES
      </tspan>
      <title>If you configure SusiDNS to publish your Router address book, it will export a hosts.txt file containing all the hosts (by default to the root of your eepsite).</title>
    </text>
    <path class="a tooltip" d="m382 164v133l-21 0 22 31 22 31 23-31 22-31-19 0v-133h-49z">
    <title>Addresses manually added to your Master address book will merge with your Router address book.</title>
    </path>
    <path class="a tooltip" d="m553 164v133l-21 0 22 31 22 31 23-31 22-31-19 0v-133z">
    <title>Hosts you receive from your subscriptions will merge with your Router address book.</title>
    </path>
  </g>
</svg>
